<svg xmlns="http://www.w3.org/2000/svg" xml:space="preserve" width="2000" height="136" data-id="lg_gA3cFqucWuFsCO8B7p" data-version="1" viewBox="0 0 2000 136"><g data-padding="20"><g transform="translate(10 2.325)scale(.96581)"><rect width="419.491" height="100.57" x="371.846" y="-364.339" fill="none" rx="0" ry="0" transform="translate(526.31 400)"/><path fill="#fff" d="M929.181 113.906h-13.34q-4.47 0-6.8-1.13-2.32-1.13-3.13-3.7-.8-2.56-.8-6.82v-39.02q0-4.35.8-6.89.81-2.54 3.13-3.65 2.33-1.11 6.8-1.11h13.34q9.35 0 16.36 2.78 7.02 2.78 10.93 9.41 3.92 6.63 3.92 18.19t-3.92 18.58q-3.91 7.01-10.93 10.19-7.01 3.17-16.36 3.17m-3.17-50.89h-1.91q-2.87 0-3.91 1.22-1.05 1.21-1.05 4.17v28.68q0 2.91 1.05 4.17 1.04 1.26 3.91 1.26h2q9.3 0 14.4-4.56 5.11-4.56 5.11-15.82 0-7.52-2.33-11.67-2.32-4.15-6.71-5.8t-10.56-1.65m71.96 51.97q-9.04 0-15.74-3.47-6.69-3.48-10.36-10.47-3.67-7-3.67-17.47 0-16.65 8.12-24.84 8.13-8.19 22.65-8.19 13.6 0 21.51 8.02 7.91 8.01 7.91 23.75 0 11.12-3.7 18.36-3.69 7.23-10.51 10.77-6.83 3.54-16.21 3.54m.26-11.73q7.82 0 11.6-5.6 3.78-5.61 3.78-14.56 0-10.39-3.56-15.6-3.57-5.22-11.48-5.22-15.6 0-15.6 20.56 0 9.17 3.76 14.79 3.76 5.63 11.5 5.63m67.19 0q3.17 0 4.98-.65 1.8-.65 2.8-1.61 1-.95 1.74-1.91.69-.87 1.15-1.3.46-.44 1.28-.61.7-.22 2.24-.28 1.54-.07 3.09-.07 1.54 0 2.15.09.91.04 1.26.34.34.31.43 1.31.13 1.39.15 3.3t-.06 3.3q-.05.44-.15.74-.11.31-.46.91-.43.7-1.7 2.03-1.26 1.32-3.69 2.73-2.43 1.42-6.28 2.42-3.84.99-9.45.99-6 0-11.21-1.54-5.22-1.54-9.15-5.19t-6.13-9.87q-2.19-6.21-2.19-15.51 0-10.34 3.58-17.58 3.59-7.23 10.19-11.01 6.61-3.79 15.65-3.79 6.34 0 10.19 1.31 3.84 1.3 5.84 3.06t2.83 3.07q.3.47.43.84t.18 1.15q.13 1.05.06 3.05-.06 2-.32 3.52-.18.95-.57 1.26-.17.17-.61.3-.43.13-1.3.13-1.39 0-3.13-.11t-2.61-.24q-1.04-.17-1.52-.5-.48-.32-.95-1.02-.79-1.13-2.7-2.6-1.91-1.48-6.3-1.48-6.17 0-10.17 4.76t-4 15.4q0 10.61 4.2 15.73 4.19 5.13 10.23 5.13m44.11-34.37v42.72q0 1.3-.5 1.8t-1.76.5h-8.73q-1.22 0-1.74-.5t-.52-1.8v-55.06q0-2.57.99-3.76 1-1.2 3.52-1.2h4.05q2.21 0 4.19.59 1.98.58 4.22 2.63 2.23 2.04 5.21 6.32t7.19 11.67q4.04 7.04 6.5 11.25 2.45 4.22 3.8 6.44 1.35 2.21 2.02 3.17.68.95 1.11 1.56v-36.68q0-1.26.39-1.91 1.87-2.87 5.17-6.04.65-.52 1.09-.52.48 0 1.04.52 1.78 1.65 3.02 3.15t2.15 2.89q.4.7.4 1.91v51.76q0 1.96-.74 2.78-.74.83-2.7.83h-4.17q-1.87 0-3.82-.63-1.96-.63-4.44-2.87-2.47-2.24-5.86-6.97-3.39-4.74-8.17-12.95-4.04-7-6.46-11.13-2.41-4.13-3.67-6.24-1.26-2.1-1.82-2.95-.57-.85-.96-1.28m83.44 46.1q-9.04 0-15.73-3.47-6.7-3.48-10.37-10.47-3.67-7-3.67-17.47 0-16.65 8.13-24.84 8.12-8.19 22.64-8.19 13.6 0 21.51 8.02 7.91 8.01 7.91 23.75 0 11.12-3.7 18.36-3.69 7.23-10.51 10.77-6.83 3.54-16.21 3.54m.26-11.73q7.82 0 11.6-5.6 3.78-5.61 3.78-14.56 0-10.39-3.56-15.6-3.57-5.22-11.47-5.22-15.61 0-15.61 20.56 0 9.17 3.76 14.79 3.76 5.63 11.5 5.63m50.41 6.6q-1.87-3.52-3.83-8.93-1.95-5.41-3.73-11.63-1.79-6.21-3.18-12.27-1.39-6.07-2.19-11.02-.8-4.96-.8-7.74 0-1.13.47-1.78 1-1.39 2.46-2.89 1.45-1.5 3.45-3.15.66-.52 1.22-.52.57 0 1.13.52 2.04 1.65 3.48 3.15 1.43 1.5 2.43 2.89.48.65.48 1.91v-.17q0 2.87.76 7.76t2 10.69 2.69 11.43q1.46 5.62 2.89 10.01h.26q2.35-5.82 4.39-12.64 2.05-6.83 3.83-13.95 1.78-7.13 3.34-13.86.48-1.96 1.63-2.72t3.63-.76h5.22q2.21 0 3.3.65t1.56 2.83q1.13 5.04 2.57 10.64 1.43 5.61 2.97 11.15 1.55 5.54 3.13 10.36 1.59 4.83 3.02 8.3h.26q1.83-4.12 3.28-9.73 1.46-5.61 2.48-11.45 1.02-5.85 1.57-10.84.54-5 .54-7.87v.17q0-1.26.43-1.91 2.09-2.87 5.74-6.04.7-.52 1.22-.52.48 0 1.13.52 1.95 1.65 3.34 3.15t2.39 2.89q.44.7.44 1.87 0 3.65-.83 8.78-.82 5.13-2.24 10.93-1.41 5.8-3.17 11.58t-3.69 10.8q-1.94 5.02-3.8 8.49-1.57 2.92-2.81 3.94t-3.54 1.02h-5.34q-1.96 0-3.29-.87-1.32-.87-2.75-3.26-1.09-1.83-2.5-5.13-1.42-3.3-2.83-7.19t-2.54-7.54-1.65-6.17q-.61-2.87-1.02-5.54-.42-2.67-.5-4.2h-.35q-.09 1.53-.54 4.2-.46 2.67-1.11 5.54t-1.74 6.56q-1.09 3.7-2.39 7.43-1.3 3.74-2.61 6.91-1.3 3.17-2.43 5.04-1.26 2.13-2.76 3.18-1.5 1.04-4.15 1.04h-4.91q-2.3 0-3.48-.83-1.17-.82-2.43-3.21m71.4-51.63v.17-.04Zm-85.13.17v-.17.04Z"/><path fill="#fff" stroke="#fff" stroke-width="3" d="M872.261-.231v136.094"/><path fill="#fff" d="m754.061 2.496-21.62 24.15v104.19h96.6V2.496Zm-1.84 8.97v13.8h-12.42Zm72.22 114.77h-87.4v-96.37h19.78V7.096h67.62Z"/><path fill="#fff" d="M759.121 33.546h43.93v4.6h-43.93Zm0 11.27h43.93v4.6h-43.93Zm0 11.27h43.93v4.6h-43.93Zm0 11.04h43.93v4.6h-43.93Z"/></g><path fill="transparent" stroke="transparent" d="M707.5 0h585v136h-585z"/></g></svg>