<svg xmlns="http://www.w3.org/2000/svg" xml:space="preserve" width="2000" height="1500" data-id="lg_gA3cFqucWuFsCO8B7p" data-version="1" viewBox="0 0 2000 1500"><path stroke="transparent" d="M0 0h2000v1500H0z"/><g data-padding="20"><g transform="translate(-1801.887 -1363.884)scale(2.72339)"><rect width="350.422" height="100.57" x="452.806" y="355.444" fill="none" rx="0" ry="0" transform="translate(490.55 351.61)"/><path fill="#fff" d="m952.477 727.9-1.34-9.35q1.38-.13 3.16-.22t3.65-.15q1.87-.07 3.7-.09 1.82-.02 3.29-.02 7.07 0 13.1 1.73 6.03 1.74 10.44 5.52 4.4 3.78 6.9 9.7 2.49 5.92 2.49 14.24 0 6.5-1.25 11.68-1.24 5.19-3.45 9.19-2.2 4.01-5.29 6.88t-6.81 4.71q-3.72 1.85-7.9 2.72-4.18.86-8.63.86h-12.06Zm7.34-2.67 1.11 8.9v44.05h.89q5.74 0 9.97-1.33 4.23-1.34 7.19-3.54t4.83-5.07 2.91-5.94q1.05-3.07 1.43-6.1.37-3.02.37-5.61 0-3.78-.35-7.16-.36-3.38-1.34-6.23t-2.67-5.12-4.36-3.87-6.43-2.47-8.83-.87q-.71 0-1.51.05-.81.04-1.52.13Zm70.31 60.82q-4 0-7.36-1.22-3.36-1.23-6.1-3.47-2.74-2.25-4.78-5.37-2.05-3.11-3.45-6.92-1.4-3.8-2.09-8.14t-.69-9.01.66-9.01q.67-4.34 2.03-8.15 1.36-3.8 3.38-6.91 2.03-3.12 4.74-5.37 2.71-2.24 6.14-3.47 3.43-1.22 7.52-1.22 4.01 0 7.37 1.22 3.36 1.23 6.09 3.47 2.74 2.25 4.79 5.37 2.04 3.11 3.45 6.91 1.4 3.81 2.09 8.15t.69 9.01-.67 9.01-2.03 8.14q-1.35 3.81-3.38 6.92-2.02 3.12-4.74 5.37-2.71 2.24-6.14 3.47-3.42 1.22-7.52 1.22m15.22-32.75q0-3.12-.2-6.36-.2-3.25-.8-6.35-.6-3.09-1.67-5.83-1.07-2.73-2.78-4.76-1.71-2.02-4.18-3.22t-5.86-1.2q-3.2 0-5.56 1.06-2.36 1.07-4 2.92-1.65 1.85-2.72 4.31-1.07 2.47-1.64 5.23-.58 2.76-.81 5.66-.22 2.89-.22 5.6 0 3.16.2 6.45.2 3.3.8 6.39t1.67 5.83 2.81 4.78q1.73 2.05 4.18 3.25t5.83 1.2q3.16 0 5.49-1.09 2.34-1.09 4.01-2.98t2.74-4.36q1.06-2.47 1.66-5.25.61-2.78.83-5.67.22-2.9.22-5.61m61.33 21.76 3.43 5.61q-1.83 1.47-3.7 2.49-1.86 1.02-3.91 1.67-2.05.64-4.32.93t-4.89.29q-4.28 0-8.15-1.27t-7.18-3.56q-3.32-2.29-5.99-5.49-2.67-3.21-4.54-7.1t-2.89-8.34-1.02-9.26q0-6.72 1.91-12.75t5.7-10.59q3.78-4.56 9.36-7.23 5.59-2.67 12.93-2.67 5.12 0 9.23 1.62 4.12 1.63 7.32 4.7l-4 4.76q-1.07-.71-2.27-1.36-1.2-.64-2.65-1.13-1.44-.49-3.16-.78-1.71-.29-3.76-.29-5.43 0-9.45 2.05-4.03 2.04-6.7 5.54-2.67 3.49-3.98 8.14-1.32 4.65-1.32 9.86 0 3.24.67 6.54.67 3.29 1.94 6.36 1.26 3.07 3.13 5.74t4.3 4.67q2.42 2.01 5.36 3.14 2.94 1.14 6.36 1.14 2.01 0 3.52-.18t2.87-.58 2.74-1.05q1.38-.64 3.11-1.62m59.62 10.23h-7.34l-22.03-42.18-7.07-18.38-.27.04 2.89 19.58v40.94h-8.01v-57.4l-1.33-9.35 8.94-.89 22.07 42.86 7.39 18.55.27-.04-3.52-19.54v-40.94l8.01-.89Zm37.38.76q-4 0-7.36-1.22-3.36-1.23-6.1-3.47-2.74-2.25-4.78-5.37-2.05-3.11-3.45-6.92-1.4-3.8-2.09-8.14t-.69-9.01.66-9.01q.67-4.34 2.03-8.15 1.36-3.8 3.38-6.91 2.03-3.12 4.74-5.37 2.71-2.24 6.14-3.47 3.43-1.22 7.52-1.22 4.01 0 7.37 1.22 3.36 1.23 6.09 3.47 2.74 2.25 4.79 5.37 2.04 3.11 3.45 6.91 1.4 3.81 2.09 8.15t.69 9.01-.67 9.01-2.03 8.14q-1.35 3.81-3.38 6.92-2.02 3.12-4.74 5.37-2.71 2.24-6.14 3.47-3.42 1.22-7.52 1.22m15.22-32.75q0-3.12-.2-6.36-.2-3.25-.8-6.35-.6-3.09-1.67-5.83-1.07-2.73-2.78-4.76-1.71-2.02-4.18-3.22t-5.86-1.2q-3.2 0-5.56 1.06-2.36 1.07-4 2.92-1.65 1.85-2.72 4.31-1.07 2.47-1.64 5.23-.58 2.76-.81 5.66-.22 2.89-.22 5.6 0 3.16.2 6.45.2 3.3.8 6.39t1.67 5.83 2.81 4.78q1.73 2.05 4.18 3.25t5.83 1.2q3.16 0 5.49-1.09 2.34-1.09 4.01-2.98t2.74-4.36q1.06-2.47 1.66-5.25.61-2.78.83-5.67.22-2.9.22-5.61m32.17 23.09 3.07-22.25 4.28-17.8h6.23l4.58 17.8 3.16 22.25h.18l1.42-20.47 6.81-37.38h7.88l-12.11 66.75h-8.05l-4.27-20.02-2.63-22.25h-.18l-2.58 22.25-4.36 20.02h-7.92l-12.28-66.75 7.74-.89 7.48 38.27 1.38 20.47Z"/><path fill="#fff" stroke="#fff" stroke-width="3" d="M913.777 704.422v136.094"/><path fill="#fff" fill-rule="evenodd" d="M806.492 694.053a2.213 2.213 0 0 0-2.177 2.248v17.063a2.213 2.213 0 1 0 4.425 0v-17.063a2.213 2.213 0 0 0-2.248-2.248m-28.001 8.85a2.213 2.213 0 0 0-1.487 3.823l12.213 11.894a2.222 2.222 0 1 0 3.097-3.186L780.1 703.54a2.3 2.3 0 0 0-1.593-.637m55.773 0a2.3 2.3 0 0 0-1.522.637l-12.213 11.912a2.213 2.213 0 1 0 3.08 3.17l12.213-11.914a2.213 2.213 0 0 0-1.558-3.805m-27.364 18.992c-4.673 0-8.443 3.54-8.443 7.965l.177 60.074s-.053 3.044-.92 3.062q-.248-.036-.55-.3l-20.868-19.86a6.903 6.903 0 0 0-9.823 0l-.991 1.044c-2.567 2.708-1.876 6.655.513 9.788l29.913 39.294s.62.885.832 1.38c.372.833.726 2.62.726 2.62l.637 8.602-3.86-.123c-1.592-.054-2.866 2.07-2.866 4.637v13.17c0 2.583 1.274 4.654 2.867 4.654l65.738.124c1.593 0 2.885-2.07 2.885-4.655v-13.17c0-2.566-1.292-4.637-2.885-4.637h-4.195c-.141-2.672-.195-5.93.177-8.07.637-3.824 1.717-2.762 3.93-10.94 2.212-8.194 1.185-40.302 1.185-40.302.39-4.425-3.433-8-7.7-8-3.858 0-6.831 2.937-7.54 6.76v-1.964s.125-9.7-7.752-9.84c-4.07-.09-7.115 3.38-7.54 7.663l-.053-4.354c-.053-4.496-3.38-8.142-7.594-8.142-4.177 0-7.522 3.593-7.593 8.036l-.017-.46v-36.073a8.14 8.14 0 0 0-8.408-7.965Zm-35.63 10.266a2.213 2.213 0 0 0 0 4.425h17.062a2.213 2.213 0 1 0 0-4.425Zm53.347 0a2.213 2.213 0 1 0 0 4.425h17.046a2.213 2.213 0 0 0 0-4.425Z"/><rect width="282.078" height="49.72" x="486.978" y="380.869" fill="none" rx="0" ry="0" transform="translate(463.75 427.75)"/><path fill="#fff" d="M972.007 843.57v3.22h-17.49v-31.41h17.49v3.23h-13.83v10.16h13.04v3.18h-13.04v11.62Zm15.23-20.7q4.22 0 6.26 1.89t2.04 6.04v16h-2.6l-.69-3.48h-.17q-.99 1.29-2.06 2.16-1.08.87-2.49 1.31-1.4.44-3.44.44-2.15 0-3.82-.75-1.66-.75-2.62-2.28-.95-1.52-.95-3.86 0-3.53 2.79-5.42t8.51-2.06l4.06-.17v-1.44q0-3.05-1.31-4.28-1.31-1.22-3.7-1.22-1.85 0-3.52.54-1.68.53-3.18 1.26l-1.1-2.7q1.59-.82 3.66-1.4 2.06-.58 4.33-.58m4.77 14.5v-2.17l-3.58.15q-4.41.17-6.21 1.44-1.81 1.27-1.81 3.59 0 2.02 1.23 2.99 1.22.96 3.24.96 3.14 0 5.14-1.74 1.99-1.74 1.99-5.22m26.11 2.99q0 2.25-1.13 3.79t-3.22 2.31q-2.1.77-5 .77-2.47 0-4.27-.38-1.81-.39-3.16-1.1v-3.29q1.44.71 3.44 1.29 1.99.58 4.08.58 3.05 0 4.42-.99 1.38-.98 1.38-2.68 0-.97-.55-1.71t-1.84-1.44q-1.28-.7-3.56-1.53-2.26-.86-3.9-1.71-1.65-.85-2.54-2.08-.89-1.22-.89-3.18 0-2.98 2.42-4.58t6.35-1.6q2.12 0 3.98.42 1.86.41 3.47 1.12l-1.2 2.86q-1.46-.62-3.12-1.05-1.65-.43-3.37-.43-2.47 0-3.79.82-1.32.81-1.32 2.23 0 1.1.61 1.8.61.71 1.97 1.34 1.35.62 3.56 1.46 2.22.81 3.83 1.68t2.48 2.11q.87 1.23.87 3.17m11.45 6.49-9.43-23.59h3.82l5.2 13.66q.45 1.2.84 2.31t.69 2.12.47 1.95h.15q.3-1.07.86-2.82t1.2-3.58l4.92-13.64h3.85l-10.25 27q-.82 2.17-1.9 3.78-1.09 1.61-2.63 2.48-1.55.88-3.74.88-1.01 0-1.79-.12-.77-.12-1.33-.27v-2.86q.48.11 1.15.19.68.09 1.41.09 1.33 0 2.31-.5.98-.51 1.69-1.48.7-.96 1.22-2.3Zm16.59-5.17h3.82l.28.49q-.39 1.57-.98 3.36-.59 1.78-1.29 3.57-.7 1.8-1.41 3.37h-2.66q.45-1.72.88-3.62.43-1.91.79-3.76.35-1.86.57-3.41m40.83-3.24q0 2.79-1.39 4.75-1.39 1.97-3.88 3t-5.86 1.03q-1.79 0-3.38-.17t-2.92-.49q-1.33-.33-2.34-.8v-3.5q1.61.67 3.93 1.24 2.32.56 4.86.56 2.36 0 3.99-.63 1.64-.63 2.48-1.83.85-1.19.85-2.86 0-1.61-.71-2.7-.7-1.08-2.35-1.98-1.64-.89-4.48-1.9-2-.71-3.52-1.56-1.53-.84-2.56-1.92-1.03-1.07-1.56-2.49-.52-1.42-.52-3.24 0-2.52 1.28-4.31 1.27-1.8 3.54-2.75 2.27-.96 5.21-.96 2.51 0 4.65.47 2.14.48 3.92 1.27l-1.14 3.14q-1.69-.71-3.59-1.18-1.91-.48-3.92-.48-2.02 0-3.41.6-1.39.59-2.12 1.66t-.73 2.56q0 1.65.7 2.75.7 1.09 2.24 1.94 1.53.85 4.07 1.77 2.77 1.01 4.7 2.14 1.94 1.13 2.95 2.75t1.01 4.12m5.85-15.18h3.57v23.54h-3.57Zm1.83-8.81q.88 0 1.51.57.64.57.64 1.77 0 1.18-.64 1.76-.63.58-1.51.58-.93 0-1.54-.58t-.61-1.76q0-1.2.61-1.77t1.54-.57m34.85 8.37q3.89 0 5.87 2.03t1.98 6.52v15.42h-3.53v-15.25q0-2.86-1.23-4.29-1.24-1.43-3.67-1.43-3.41 0-4.96 1.98t-1.55 5.82v13.17h-3.54v-15.25q0-1.91-.55-3.18t-1.63-1.9q-1.09-.64-2.74-.64-2.34 0-3.76.97t-2.05 2.87q-.64 1.9-.64 4.67v12.46h-3.56v-23.54h2.88l.53 3.33h.2q.71-1.23 1.78-2.07 1.07-.83 2.41-1.26 1.33-.43 2.83-.43 2.69 0 4.5 1 1.82.99 2.64 3.04h.19q1.16-2.05 3.18-3.04 2.02-1 4.42-1m26.24.01q4.4 0 7.02 3.03t2.62 9.11q0 4.01-1.2 6.74t-3.38 4.13q-2.18 1.39-5.15 1.39-1.87 0-3.29-.49-1.41-.5-2.42-1.33-1.01-.84-1.68-1.83h-.26q.07.84.16 2.02.1 1.18.1 2.06v9.67h-3.59v-34.07h2.95l.47 3.48h.17q.69-1.08 1.68-1.97.98-.89 2.41-1.42 1.43-.52 3.39-.52m-.63 3q-2.45 0-3.94.95t-2.18 2.83q-.69 1.87-.73 4.71v.69q0 2.98.66 5.05.65 2.06 2.17 3.13 1.51 1.08 4.07 1.08 2.19 0 3.65-1.18 1.46-1.19 2.18-3.3.72-2.12.72-4.87 0-4.17-1.62-6.63t-4.98-2.46m20.06-12.47v33.43h-3.59v-33.43Zm16.59 9.47q3 0 5.15 1.33t3.29 3.73q1.14 2.39 1.14 5.59v2.22h-16.27q.07 4.14 2.07 6.31t5.63 2.17q2.23 0 3.95-.41 1.72-.4 3.57-1.2v3.14q-1.79.79-3.54 1.16-1.75.36-4.13.36-3.4 0-5.92-1.38-2.53-1.39-3.92-4.07-1.4-2.69-1.4-6.58 0-3.8 1.28-6.58 1.28-2.79 3.61-4.29t5.49-1.5m-.05 2.92q-2.85 0-4.55 1.87t-2.02 5.22h12.46q-.02-2.11-.66-3.71-.63-1.6-1.92-2.49t-3.31-.89"/></g><path fill="transparent" stroke="transparent" stroke-width="2.83" d="M250 517.925h1500v464.15H250z"/></g></svg>